# xmcd
#
# Track frame offsets:
#	150
#	18247
#	35400
#	52836
#	75216
#	94934
#	114091
#	134455
#	157553
#	180523
#	209167
#	224584
#	242115
#
# Disc length: 3442 seconds
#
# Revision: 1
# Processed by: cddbd v1.5.1PL0 Copyright (c) Steve Scherf et al.
# Submitted via: audiograbber 1.82.02
#
DISCID=9f0d700d
DTITLE=Morris Albert - Cuore
DYEAR=2004
DGENRE=Vocal
TTITLE0=Cuore (con Mietta)
TTITLE1=Woman
TTITLE2=Gonna love you more
TTITLE3=Feelings
TTITLE4=Se credi in me
TTITLE5=I love you
TTITLE6=Never let you go
TTITLE7=Summer in Paris
TTITLE8=Conversation
TTITLE9=Sweet loving man
TTITLE10=Mornings
TTITLE11=My heart
TTITLE12=Ascoltami
EXTD=
EXTT0=
EXTT1=
EXTT2=
EXTT3=
EXTT4=
EXTT5=
EXTT6=
EXTT7=
EXTT8=
EXTT9=
EXTT10=
EXTT11=
EXTT12=
PLAYORDER=
